<svg xmlns="http://www.w3.org/2000/svg" version="1.1" xmlns:xlink="http://www.w3.org/1999/xlink" xmlns:svgjs="http://svgjs.dev/svgjs" width="200" height="70" viewBox="0 0 200 70"><rect width="200" height="70" fill="#ffffff"></rect><g transform="matrix(1,0,0,1,-0.12121212121212466,14.98475989701631)"><svg viewBox="0 0 396 81" data-background-color="#ffffff" preserveAspectRatio="xMidYMid meet" height="40" width="200" xmlns="http://www.w3.org/2000/svg" xmlns:xlink="http://www.w3.org/1999/xlink"><g id="tight-bounds" transform="matrix(1,0,0,1,0.2400000000000091,0.030861208541978158)"><svg viewBox="0 0 395.52 80.93827758291602" height="80.93827758291602" width="395.52"><g><svg viewBox="0 0 562.9682501464771 115.20449155725139" height="80.93827758291602" width="395.52"><g><rect width="3.6978980344740346" height="83.77750652318207" x="154.0699907652124" y="15.713492517034659" fill="#ef5b2a" opacity="1" stroke-width="0" stroke="transparent" fill-opacity="1" class="rect-qz-0" data-fill-palette-color="primary" rx="1%" id="qz-0" data-palette-color="#ef5b2a"></rect></g><g transform="matrix(1,0,0,1,167.4482501464771,15.921894274555008)"><svg viewBox="0 0 395.52 83.36070300814137" height="83.36070300814137" width="395.52"><g id="textblocktransform"><svg viewBox="0 0 395.52 83.36070300814137" height="83.36070300814137" width="395.52" id="textblock"><g><svg viewBox="0 0 395.52 41.00527519438938" height="41.00527519438938" width="395.52"><g transform="matrix(1,0,0,1,0,0)"><svg width="395.52" viewBox="5 -33.25 325.92 34" height="41.00527519438938" data-palette-color="#ef5b2a"><g class="wordmark-text-0" data-fill-palette-color="primary" id="text-0"><path d="M8.5-25L8.5 0 5 0 5-32.5 8.5-32.5 19.35-7.5 19.35-32.5 22.85-32.5 22.85 0 19.35 0 8.5-25ZM36.35-15L36.35 0 32.85 0 32.85-32.5 46.6-32.5 46.6-29.5 36.35-29.5 36.35-18 44.6-18 44.6-15 36.35-15Z" fill="#ef5b2a" data-fill-palette-color="primary"></path><path d="M71.15 0L71.15 0 63.1 0 63.1-32.5 71.15-32.5Q75.05-32.5 77.07-30.65 79.1-28.8 79.1-25.5L79.1-25.5 79.1-7Q79.1-3.65 77.1-1.83 75.1 0 71.15 0ZM75.6-7L75.6-7 75.6-25.5Q75.6-27.4 74.45-28.45 73.3-29.5 71.15-29.5L71.15-29.5 66.6-29.5 66.6-3 71.15-3Q75.6-3 75.6-7ZM100.6-6.25L100.6-6.25 100.6-9 104.1-9 104.1-6.25Q104.1-2.9 102.05-1.07 100 0.75 95.9 0.75 91.8 0.75 89.7-1.07 87.6-2.9 87.6-6.25L87.6-6.25 87.6-26.25Q87.6-29.6 89.65-31.43 91.7-33.25 95.8-33.25 99.9-33.25 102-31.43 104.1-29.6 104.1-26.25L104.1-26.25 104.1-15.25 91.1-15.25 91.1-6.25Q91.1-2.25 95.85-2.25 100.6-2.25 100.6-6.25ZM91.1-26.25L91.1-26.25 91.1-18.25 100.6-18.25 100.6-26.25Q100.6-30.25 95.85-30.25 91.1-30.25 91.1-26.25ZM130.29-32.5L122.94 0 117.69 0 110.34-32.5 113.84-32.5 120.29-3.85 126.79-32.5 130.29-32.5ZM149.54-6.25L149.54-6.25 149.54-9 153.04-9 153.04-6.25Q153.04-2.9 150.99-1.07 148.94 0.75 144.84 0.75 140.74 0.75 138.64-1.07 136.54-2.9 136.54-6.25L136.54-6.25 136.54-26.25Q136.54-29.6 138.59-31.43 140.64-33.25 144.74-33.25 148.84-33.25 150.94-31.43 153.04-29.6 153.04-26.25L153.04-26.25 153.04-15.25 140.04-15.25 140.04-6.25Q140.04-2.25 144.79-2.25 149.54-2.25 149.54-6.25ZM140.04-26.25L140.04-26.25 140.04-18.25 149.54-18.25 149.54-26.25Q149.54-30.25 144.79-30.25 140.04-30.25 140.04-26.25ZM174.94 0L162.29 0 162.29-32.5 165.79-32.5 165.79-3 174.94-3 174.94 0ZM197.19-26.25L197.19-26.25 197.19-6.25Q197.19-2.9 195.06-1.07 192.94 0.75 188.71 0.75 184.49 0.75 182.34-1.07 180.19-2.9 180.19-6.25L180.19-6.25 180.19-26.25Q180.19-29.6 182.31-31.43 184.44-33.25 188.66-33.25 192.88-33.25 195.04-31.43 197.19-29.6 197.19-26.25ZM193.69-6.25L193.69-6.25 193.69-26.25Q193.69-30.25 188.69-30.25 183.69-30.25 183.69-26.25L183.69-26.25 183.69-6.25Q183.69-2.25 188.69-2.25 193.69-2.25 193.69-6.25ZM209.43-10L209.43 0 205.93 0 205.93-32.5 213.48-32.5Q217.38-32.5 219.41-30.65 221.43-28.8 221.43-25.5L221.43-25.5 221.43-17Q221.43-13.65 219.43-11.83 217.43-10 213.48-10L213.48-10 209.43-10ZM217.93-17L217.93-17 217.93-25.5Q217.93-27.4 216.78-28.45 215.63-29.5 213.48-29.5L213.48-29.5 209.43-29.5 209.43-13 213.48-13Q217.93-13 217.93-17ZM232.93-25.4L232.93 0 229.43 0 229.43-32.5 230.93-32.5 232.18-29.3Q233.23-31.1 234.93-32.18 236.63-33.25 238.63-33.25L238.63-33.25Q243.68-33.25 245.08-29.6L245.08-29.6Q247.48-33.25 251.38-33.25L251.38-33.25Q258.43-33.25 258.43-26.25L258.43-26.25 258.43 0 254.93 0 254.93-26.25Q254.93-30.25 251.33-30.25L251.33-30.25Q249.23-30.25 247.46-28.55 245.68-26.85 245.68-25.25L245.68-25.25 245.68 0 242.18 0 242.18-26.25Q242.18-30.25 238.58-30.25L238.58-30.25Q236.48-30.25 234.71-28.63 232.93-27 232.93-25.4L232.93-25.4ZM280.18-6.25L280.18-6.25 280.18-9 283.68-9 283.68-6.25Q283.68-2.9 281.63-1.07 279.58 0.75 275.48 0.75 271.38 0.75 269.28-1.07 267.18-2.9 267.18-6.25L267.18-6.25 267.18-26.25Q267.18-29.6 269.23-31.43 271.28-33.25 275.38-33.25 279.48-33.25 281.58-31.43 283.68-29.6 283.68-26.25L283.68-26.25 283.68-15.25 270.68-15.25 270.68-6.25Q270.68-2.25 275.43-2.25 280.18-2.25 280.18-6.25ZM270.68-26.25L270.68-26.25 270.68-18.25 280.18-18.25 280.18-26.25Q280.18-30.25 275.43-30.25 270.68-30.25 270.68-26.25ZM296.43-25.25L296.43 0 292.93 0 292.93-32.5 294.43-32.5 295.68-29.25Q298.08-33.25 302.33-33.25L302.33-33.25Q309.68-33.25 309.68-26.25L309.68-26.25 309.68 0 306.18 0 306.18-26.25Q306.18-28.15 305.35-29.2 304.53-30.25 302.33-30.25 300.13-30.25 298.28-28.55 296.43-26.85 296.43-25.25L296.43-25.25ZM318.42-5.75L318.42-32.5 329.42-32.5 329.42-29.5 321.92-29.5 321.92-5.55Q321.92-4.15 322.65-3.2 323.37-2.25 324.7-2.25 326.02-2.25 326.72-3.18 327.42-4.1 327.42-5.55L327.42-5.55 327.42-11.5 330.92-11.5 330.92-5.75Q330.92-2.6 329.25-0.93 327.57 0.75 324.72 0.75 321.87 0.75 320.15-0.93 318.42-2.6 318.42-5.75L318.42-5.75Z" fill="#301c3b" data-fill-palette-color="accent"></path></g></svg></g></svg></g><g transform="matrix(1,0,0,1,0,50.685636541180045)"><svg viewBox="0 0 232.209792 32.67506646696133" height="32.67506646696133" width="232.209792"><g transform="matrix(1,0,0,1,0,0)"><svg width="232.209792" viewBox="1.76 -40.6 292.71000000000004 41.160000000000004" height="32.67506646696133" data-palette-color="#ef5b2a"><path d="M14.87 0L1.76 0 1.76-2.08 5.47-2.64 5.47-34.18 1.76-34.74 1.76-36.82 13.79-36.82Q24.19-36.82 27.08-31.2L27.08-31.2Q28.15-29.13 28.15-26.21 28.15-23.29 27.19-21.04 26.22-18.8 24.32-17.24L24.32-17.24Q20.39-13.96 12.99-13.96L12.99-13.96 10.06-13.96 10.06-2.64 14.87-2.08 14.87 0ZM13.21-33.86L10.06-33.86 10.06-16.55 13.67-16.55Q18.53-16.55 21.09-19.14L21.09-19.14Q23.36-21.48 23.36-25.46L23.36-25.46Q23.36-29.57 21.19-31.59L21.19-31.59Q18.77-33.86 13.21-33.86L13.21-33.86ZM31.66-11.87L31.66-11.87Q31.66-14.67 32.63-17.09 33.59-19.51 35.25-21.19L35.25-21.19Q38.67-24.73 43.67-24.73L43.67-24.73Q49.48-24.73 52.76-21.29L52.76-21.29Q55.86-17.99 55.86-12.67L55.86-12.67Q55.86-6.74 52.34-3.03L52.34-3.03Q48.92 0.56 43.89 0.56L43.89 0.56Q38.16 0.56 34.81-2.98L34.81-2.98Q31.66-6.3 31.66-11.87ZM37.91-19.15Q36.94-17.9 36.44-16.21 35.94-14.53 35.94-12.56 35.94-10.6 36.39-8.73 36.84-6.86 37.79-5.42L37.79-5.42Q39.89-2.29 43.85-2.29L43.85-2.29Q47.56-2.29 49.61-4.74L49.61-4.74Q51.63-7.13 51.63-11.21L51.63-11.21Q51.63-18.43 47.51-20.92L47.51-20.92Q45.97-21.85 43.87-21.85 41.77-21.85 40.33-21.13 38.89-20.41 37.91-19.15ZM62.5-2.59L62.5-20.36 59.37-20.92 59.37-22.95 66.45-24.73 66.45-18.51Q72.07-24.73 74.9-24.73L74.9-24.73Q77.22-24.73 79.17-22.88L79.17-22.88 77.9-18.92 76.75-18.92Q76.75-20.12 74.92-20.7L74.92-20.7Q74.41-20.85 73.9-20.85L73.9-20.85Q71.31-20.85 66.45-15.65L66.45-15.65 66.45-2.59 71.28-2.03 71.28 0 59.37 0 59.37-2.03 62.5-2.59ZM87.35-21.29L87.35-7.47Q87.35-2.59 91.3-2.59L91.3-2.59Q93.38-2.59 95.33-4.3L95.33-4.3 96.65-2.69Q94.57-0.98 92.81-0.21 91.06 0.56 89.71 0.56 88.37 0.56 87.11-0.02 85.86-0.61 85.03-1.71L85.03-1.71Q83.39-3.83 83.39-7.74L83.39-7.74 83.39-21.29 80.29-21.29 80.29-23.41 83.39-24.15 83.39-27.42 86.27-30.3 87.35-30.3 87.35-24.15 95.4-24.15 95.4-21.29 87.35-21.29ZM104.34-21.29L104.34-2.69 109.63-2.03 109.63 0 97.01 0 97.01-2.03 100.38-2.59 100.38-21.39 97.01-21.39 97.01-23.41 100.38-24.15 100.38-29.32Q100.38-33.15 102.75-36.62L102.75-36.62Q105.46-40.6 109.85-40.6L109.85-40.6Q112.66-40.6 114.44-39.48L114.44-39.48Q115.22-38.99 115.62-38.35L115.62-38.35 113.95-34.03 112.37-34.03Q112.37-36.47 110.66-37.35L110.66-37.35Q110.05-37.7 109.11-37.7 108.17-37.7 107.3-37.29 106.44-36.89 105.78-36.06L105.78-36.06Q104.34-34.25 104.34-31.01L104.34-31.01 104.34-24.15 111.76-24.15 111.76-21.29 104.34-21.29ZM115.17-11.87L115.17-11.87Q115.17-14.67 116.14-17.09 117.1-19.51 118.76-21.19L118.76-21.19Q122.18-24.73 127.18-24.73L127.18-24.73Q133-24.73 136.27-21.29L136.27-21.29Q139.37-17.99 139.37-12.67L139.37-12.67Q139.37-6.74 135.85-3.03L135.85-3.03Q132.43 0.56 127.4 0.56L127.4 0.56Q121.67 0.56 118.32-2.98L118.32-2.98Q115.17-6.3 115.17-11.87ZM121.42-19.15Q120.45-17.9 119.95-16.21 119.45-14.53 119.45-12.56 119.45-10.6 119.9-8.73 120.35-6.86 121.3-5.42L121.3-5.42Q123.4-2.29 127.36-2.29L127.36-2.29Q131.07-2.29 133.12-4.74L133.12-4.74Q135.14-7.13 135.14-11.21L135.14-11.21Q135.14-18.43 131.02-20.92L131.02-20.92Q129.48-21.85 127.38-21.85 125.28-21.85 123.84-21.13 122.4-20.41 121.42-19.15ZM150.03-40.6L150.03-2.59 153.16-2.03 153.16 0 142.9 0 142.9-2.03 146.08-2.59 146.08-36.21 142.9-36.82 142.9-38.79 150.03-40.6ZM162.73-24.73L162.73-2.59 165.85-2.03 165.85 0 155.6 0 155.6-2.03 158.77-2.59 158.77-20.36 155.6-20.92 155.6-22.95 162.73-24.73ZM158.64-32.19Q158.23-32.62 157.99-33.15 157.75-33.69 157.75-34.22 157.75-34.74 157.99-35.27 158.23-35.79 158.63-36.23L158.63-36.23Q159.53-37.21 160.27-37.21 161.02-37.21 161.54-36.94 162.07-36.67 162.48-36.23L162.48-36.23Q163.39-35.23 163.39-34.46 163.39-33.69 163.13-33.15 162.87-32.62 162.48-32.18L162.48-32.18Q161.55-31.23 160.79-31.23 160.02-31.23 159.53-31.49 159.04-31.76 158.64-32.19ZM169.36-11.87L169.36-11.87Q169.36-14.67 170.33-17.09 171.29-19.51 172.95-21.19L172.95-21.19Q176.37-24.73 181.38-24.73L181.38-24.73Q187.19-24.73 190.46-21.29L190.46-21.29Q193.56-17.99 193.56-12.67L193.56-12.67Q193.56-6.74 190.04-3.03L190.04-3.03Q186.63 0.56 181.6 0.56L181.6 0.56Q175.86 0.56 172.51-2.98L172.51-2.98Q169.36-6.3 169.36-11.87ZM175.61-19.15Q174.64-17.9 174.14-16.21 173.64-14.53 173.64-12.56 173.64-10.6 174.09-8.73 174.54-6.86 175.49-5.42L175.49-5.42Q177.59-2.29 181.55-2.29L181.55-2.29Q185.26-2.29 187.31-4.74L187.31-4.74Q189.34-7.13 189.34-11.21L189.34-11.21Q189.34-18.43 185.21-20.92L185.21-20.92Q183.67-21.85 181.57-21.85 179.47-21.85 178.03-21.13 176.59-20.41 175.61-19.15ZM227.2-2.34L227.2-2.34Q229-2.34 230.48-2.7 231.96-3.05 233.03-3.81L233.03-3.81Q235.33-5.4 235.33-8.45L235.33-8.45Q235.33-11.04 233.64-12.7L233.64-12.7Q231.86-14.4 227.87-16.15 223.88-17.9 221.79-19.27 219.7-20.65 218.51-22.07L218.51-22.07Q216.33-24.56 216.33-28.1L216.33-28.1Q216.33-32.2 219.87-34.86L219.87-34.86Q223.17-37.38 227.86-37.38L227.86-37.38Q231.54-37.38 235.23-36.04L235.23-36.04Q236.77-35.42 238.01-34.69L238.01-34.69 237.16-28.17 235.11-28.17Q235.11-31.54 233.28-33.07 231.44-34.59 227.98-34.59L227.98-34.59Q223.19-34.59 221.43-31.47L221.43-31.47Q220.87-30.44 220.87-29.17 220.87-27.91 221.24-26.89 221.61-25.88 222.66-24.9L222.66-24.9Q224.71-22.92 230.37-20.56L230.37-20.56Q238.28-17.19 239.6-12.6L239.6-12.6Q239.99-11.16 239.99-9.53 239.99-7.91 239.44-6.46 238.89-5 237.94-3.87 236.99-2.73 235.73-1.9 234.47-1.07 233.06-0.54L233.06-0.54Q226.78 1.9 219.87-0.93L219.87-0.93Q217.36-1.98 215.43-3.49L215.43-3.49 216.45-10.5 218.53-10.5Q218.53-5.59 221.63-3.66L221.63-3.66Q223.75-2.34 227.2-2.34ZM250.44-24.73L250.44-2.59 253.56-2.03 253.56 0 243.31 0 243.31-2.03 246.48-2.59 246.48-20.36 243.31-20.92 243.31-22.95 250.44-24.73ZM246.35-32.19Q245.94-32.62 245.7-33.15 245.46-33.69 245.46-34.22 245.46-34.74 245.7-35.27 245.94-35.79 246.33-36.23L246.33-36.23Q247.24-37.21 247.98-37.21 248.73-37.21 249.25-36.94 249.78-36.67 250.19-36.23L250.19-36.23Q251.1-35.23 251.1-34.46 251.1-33.69 250.84-33.15 250.58-32.62 250.19-32.18L250.19-32.18Q249.26-31.23 248.5-31.23 247.73-31.23 247.24-31.49 246.75-31.76 246.35-32.19ZM262.79-21.29L262.79-7.47Q262.79-2.59 266.74-2.59L266.74-2.59Q268.82-2.59 270.77-4.3L270.77-4.3 272.09-2.69Q270.01-0.98 268.26-0.21 266.5 0.56 265.16 0.56 263.81 0.56 262.56-0.02 261.3-0.61 260.47-1.71L260.47-1.71Q258.83-3.83 258.83-7.74L258.83-7.74 258.83-21.29 255.73-21.29 255.73-23.41 258.83-24.15 258.83-27.42 261.71-30.3 262.79-30.3 262.79-24.15 270.84-24.15 270.84-21.29 262.79-21.29ZM292.84-5.59L292.84-5.59 294.23-4Q290.35-0.51 286.71 0.37L286.71 0.37Q285.91 0.56 285.12 0.56L285.12 0.56Q279.75 0.56 276.38-2.83L276.38-2.83Q273.04-6.15 273.04-11.5L273.04-11.5Q273.04-16.82 276.19-20.61L276.19-20.61Q279.66-24.73 285.2-24.73L285.2-24.73Q289.03-24.73 291.67-21.97L291.67-21.97Q294.47-19.09 294.47-14.48L294.47-14.48 293.33-13.45 277.41-12.3Q277.46-7.86 280.29-5.2L280.29-5.2Q282.83-2.86 286.2-2.86 289.57-2.86 292.84-5.59ZM277.58-14.6L277.58-14.6 290.13-15.75Q289.96-19.8 287-21.31L287-21.31Q285.95-21.85 284.32-21.85 282.68-21.85 281.4-21.04 280.12-20.24 279.29-19.09L279.29-19.09Q277.7-16.92 277.58-14.6Z" opacity="1" transform="matrix(1,0,0,1,0,0)" fill="#ef5b2a" class="slogan-text-1" data-fill-palette-color="secondary" id="text-1"></path></svg></g></svg></g></svg></g></svg></g><g><svg viewBox="0 0 144.38962941842172 115.20449155725139" height="115.20449155725139" width="144.38962941842172"><g><svg xmlns="http://www.w3.org/2000/svg" xmlns:xlink="http://www.w3.org/1999/xlink" version="1.1" x="0" y="0" viewBox="1 13 94 75" enable-background="new 0 0 96 96" xml:space="preserve" height="115.20449155725139" width="144.38962941842172" class="icon-icon-0" data-fill-palette-color="accent" id="icon-0"><g fill="#301c3b" data-fill-palette-color="accent"><path fill="#301c3b" d="M90 82h-4v-2h4c1.654 0 3-1.346 3-3V18c0-1.654-1.346-3-3-3H6c-1.654 0-3 1.346-3 3v59c0 1.654 1.346 3 3 3h46v2H6c-2.757 0-5-2.243-5-5V18c0-2.757 2.243-5 5-5h84c2.757 0 5 2.243 5 5v59C95 79.757 92.757 82 90 82z" data-fill-palette-color="accent"></path></g><g fill="#301c3b" data-fill-palette-color="accent"><rect x="2" y="26" fill="#301c3b" width="91" height="2" data-fill-palette-color="accent"></rect></g><g fill="#301c3b" data-fill-palette-color="accent"><path fill="#301c3b" d="M10.5 22C9.673 22 9 21.327 9 20.5S9.673 19 10.5 19s1.5 0.673 1.5 1.5S11.327 22 10.5 22zM10.5 20c-0.276 0-0.5 0.224-0.5 0.5s0.224 0.5 0.5 0.5 0.5-0.224 0.5-0.5S10.776 20 10.5 20z" data-fill-palette-color="accent"></path></g><g fill="#301c3b" data-fill-palette-color="accent"><path fill="#301c3b" d="M17.5 22c-0.827 0-1.5-0.673-1.5-1.5s0.673-1.5 1.5-1.5 1.5 0.673 1.5 1.5S18.327 22 17.5 22zM17.5 20c-0.276 0-0.5 0.224-0.5 0.5s0.224 0.5 0.5 0.5 0.5-0.224 0.5-0.5S17.776 20 17.5 20z" data-fill-palette-color="accent"></path></g><g fill="#301c3b" data-fill-palette-color="accent"><path fill="#301c3b" d="M24.5 22c-0.827 0-1.5-0.673-1.5-1.5s0.673-1.5 1.5-1.5 1.5 0.673 1.5 1.5S25.327 22 24.5 22zM24.5 20c-0.276 0-0.5 0.224-0.5 0.5s0.224 0.5 0.5 0.5 0.5-0.224 0.5-0.5S24.776 20 24.5 20z" data-fill-palette-color="accent"></path></g><g fill="#301c3b" data-fill-palette-color="accent"><g fill="#301c3b" data-fill-palette-color="accent"><path fill="#301c3b" d="M77 88H61c-2.757 0-5-2.243-5-5V48c0-2.757 2.243-5 5-5h16c2.757 0 5 2.243 5 5v35C82 85.757 79.757 88 77 88zM61 45c-1.654 0-3 1.346-3 3v35c0 1.654 1.346 3 3 3h16c1.654 0 3-1.346 3-3V48c0-1.654-1.346-3-3-3H61z" data-fill-palette-color="accent"></path></g><g fill="#301c3b" data-fill-palette-color="accent"><path fill="#301c3b" d="M81 53H57c-0.552 0-1-0.448-1-1s0.448-1 1-1h24c0.552 0 1 0.448 1 1S81.552 53 81 53z" data-fill-palette-color="accent"></path></g><g fill="#301c3b" data-fill-palette-color="accent"><path fill="#301c3b" d="M81 80H57c-0.552 0-1-0.448-1-1s0.448-1 1-1h24c0.552 0 1 0.448 1 1S81.552 80 81 80z" data-fill-palette-color="accent"></path></g></g></svg></g></svg></g></svg></g><defs></defs></svg><rect width="395.52" height="80.93827758291602" fill="none" stroke="none" visibility="hidden"></rect></g></svg></g></svg>